<svg width="62" height="45" viewBox="0 0 62 45" fill="none" xmlns="http://www.w3.org/2000/svg">
<rect x="0.307495" y="0.924316" width="61.6547" height="43.5209" rx="5.44012" fill="white" fill-opacity="0.1"/>
<path opacity="0.5" d="M39.4348 10.0454C46.2256 10.0454 51.7306 15.4849 51.7307 22.1948C51.7307 28.9049 46.2257 34.3442 39.4348 34.3442C36.3902 34.3442 33.6066 33.2481 31.4592 31.437C29.3118 33.2481 26.5282 34.3442 23.4836 34.3442C16.6928 34.3442 11.1877 28.9049 11.1877 22.1948C11.1878 15.4849 16.6929 10.0454 23.4836 10.0454C26.5279 10.0454 29.3119 11.1409 31.4592 12.9517C33.6066 11.1409 36.3905 10.0455 39.4348 10.0454Z" fill="white"/>
<path opacity="0.5" d="M39.4349 10.0454C46.2257 10.0454 51.7307 15.4849 51.7308 22.1948C51.7308 28.9049 46.2258 34.3442 39.4349 34.3442C36.3904 34.3442 33.6068 33.2481 31.4594 31.437C34.1016 29.2086 35.7797 25.8964 35.7797 22.1948C35.7796 18.493 34.102 15.1801 31.4594 12.9517C33.6067 11.1409 36.3907 10.0454 39.4349 10.0454Z" fill="white"/>
<path d="M31.4596 12.9512C34.1023 15.1796 35.7799 18.4933 35.7799 22.1953C35.7798 25.8968 34.1019 29.2091 31.4596 31.4375C28.8172 29.2091 27.1394 25.8969 27.1393 22.1953C27.1393 18.4932 28.8167 15.1796 31.4596 12.9512Z" fill="white"/>
</svg>
