<svg width="50" height="43" viewBox="0 0 50 43" fill="none" xmlns="http://www.w3.org/2000/svg">
<path d="M44.3885 0.640625C46.9733 0.640625 49.0686 2.73598 49.0686 5.32073V5.32073C49.0686 7.90548 46.9733 10.0008 44.3885 10.0008L4.78765 10.0008C2.2029 10.0008 0.107551 7.90548 0.107552 5.32073V5.32073C0.107552 2.73598 2.2029 0.640623 4.78765 0.640623L44.3885 0.640625Z" fill="white"/>
<path d="M32.8681 16.8423C35.4529 16.8423 37.5482 18.9376 37.5482 21.5224V21.5224C37.5482 24.1071 35.4529 26.2025 32.8681 26.2025L16.3078 26.2025C13.723 26.2025 11.6277 24.1071 11.6277 21.5224V21.5224C11.6277 18.9376 13.723 16.8423 16.3078 16.8423L32.8681 16.8423Z" fill="white"/>
<path d="M24.5882 33.0427C27.173 33.0427 29.2683 35.1381 29.2683 37.7228V37.7228C29.2683 40.3076 27.173 42.4029 24.5882 42.4029V42.4029C22.0035 42.4029 19.9081 40.3076 19.9081 37.7228V37.7228C19.9081 35.1381 22.0035 33.0427 24.5882 33.0427V33.0427Z" fill="white"/>
</svg>
